<?xml version="1.0" encoding="UTF-8" standalone="no"?>
<!DOCTYPE svg PUBLIC "-//W3C//DTD SVG 20010904//EN" "http://www.w3.org/TR/2001/REC-SVG-20010904/DTD/svg10.dtd">
<svg width="128" height="128" viewBox="0 0 800 800" xmlns="http://www.w3.org/2000/svg">

  <defs>
    <style>
     /* Plane circling animation */
     .plane-orbit {
       transform-origin: 400px 400px;
       animation: orbit-circle 4s linear infinite;
     }

     @keyframes orbit-circle {
       from { transform: rotate(0deg); }
       to { transform: rotate(360deg); }
     }
    </style>
  </defs>
  
  <g class="plane-orbit">

    <path id="contrail-far"
          fill="white" opacity="0.2" stroke="black" stroke-width="1" stroke-opacity="0.2"
          d="M 278.00,438.00
             C 280.48,438.00 285.50,437.64 287.50,439.02
             289.41,440.33 292.85,449.19 294.42,452.00
             299.73,461.45 305.67,470.04 313.09,478.00
             333.29,499.68 366.04,515.91 396.00,516.00
             396.00,516.00 396.00,525.00 396.00,525.00
             354.01,525.00 312.76,501.82 290.81,466.00
             286.07,458.26 280.06,446.80 278.00,438.00 Z
             M 29.00,439.00
             C 29.00,439.00 38.00,439.00 38.00,439.00
             38.69,454.07 44.80,481.04 48.85,496.00
             63.35,549.54 91.03,601.72 128.17,643.00
             145.98,662.80 164.44,680.12 186.00,695.85
             186.00,695.85 202.00,707.00 202.00,707.00
             204.23,708.49 208.65,711.11 209.98,713.32
             211.39,715.68 211.00,721.16 211.00,724.00
             204.23,721.50 197.09,716.06 191.00,712.00
             175.75,701.83 161.61,690.42 148.00,678.17
             98.46,633.58 62.51,574.51 42.98,511.00
             37.22,492.30 29.01,458.13 29.00,439.00 Z" />

    <path id="contrail-mid"
          fill="white" opacity="0.4" stroke="black" stroke-width="1" stroke-opacity="0.4"
          d="M 278.00,438.00
             C 280.48,438.00 285.50,437.64 287.50,439.02
             289.52,440.41 290.84,444.73 291.86,447.00
             293.58,450.81 298.05,458.54 300.44,462.00
             306.34,470.54 313.15,478.89 321.00,485.71
             321.00,485.71 338.85,499.04 338.85,499.04
             343.04,502.58 342.00,506.99 342.00,512.00
             317.07,500.88 296.83,479.15 284.75,455.00
             282.01,449.51 279.41,444.00 278.00,438.00 Z
             M 29.00,439.00
             C 29.00,439.00 38.00,439.00 38.00,439.00
             38.65,453.06 44.69,481.02 48.58,495.00
             58.23,529.73 71.40,561.30 90.42,592.00
             98.38,604.85 106.96,617.19 116.40,629.00
             119.14,632.43 130.51,645.03 131.22,648.00
             131.83,650.55 129.73,655.28 129.00,658.00
             117.48,649.75 98.06,622.58 89.67,610.00
             64.61,572.42 45.33,528.21 35.79,484.00
             32.91,470.64 29.01,452.49 29.00,439.00 Z" />

    <path id="contrail-near"
          fill="white" opacity="0.6" stroke="black" stroke-width="1" stroke-opacity="0.6"
          d="M 278.00,438.00
             C 278.00,438.00 287.50,439.02 287.50,439.02
             287.50,439.02 295.00,453.00 295.00,453.00
             295.00,453.00 314.00,480.00 314.00,480.00
             311.85,481.14 307.61,483.66 305.17,483.14
             302.15,482.50 297.26,475.56 295.43,473.00
             289.05,464.12 280.49,448.61 278.00,438.00 Z
             M 29.00,439.00
             C 29.00,439.00 38.00,439.00 38.00,439.00
             38.72,454.75 46.43,489.61 51.34,505.00
             51.34,505.00 58.69,527.00 58.69,527.00
             58.69,527.00 63.00,539.00 63.00,539.00
             61.04,539.90 57.44,541.80 55.27,541.19
             52.91,540.54 51.82,537.05 51.05,535.00
             51.05,535.00 45.02,518.00 45.02,518.00
             38.53,497.13 29.02,460.39 29.00,439.00 Z" />
    
    <path id="plane"
          fill="#f45f36" stroke="#1d1d1b" stroke-width="1"
          d="M 88.78,546.00
             C 89.71,542.53 94.29,529.92 96.55,527.75
             98.09,526.26 102.82,524.42 104.96,523.54
             104.96,523.54 122.02,516.52 122.02,516.52
             127.41,514.36 142.75,510.28 144.21,504.64
             145.16,500.97 142.96,485.31 142.73,480.39
             142.73,480.39 139.25,441.73 139.25,441.73
             139.25,441.73 136.92,414.77 136.92,414.77
             135.62,404.92 135.74,391.03 121.13,393.50
             121.13,393.50 95.07,403.45 95.07,403.45
             95.07,403.45 42.96,424.30 42.96,424.30
             42.96,424.30 24.08,432.03 24.08,432.03
             22.21,432.57 18.53,434.28 16.94,432.03
             15.91,430.82 16.59,428.01 16.94,426.46
             18.01,421.23 19.61,417.36 22.68,412.97
             26.23,407.91 31.82,402.12 36.67,398.30
             39.70,395.90 44.80,392.98 46.53,389.60
             48.03,386.66 47.40,377.17 47.45,373.43
             47.47,371.69 47.47,369.70 48.12,368.05
             50.51,361.99 58.30,360.95 62.06,366.34
             63.99,369.10 63.25,372.09 65.06,373.91
             66.53,375.14 68.25,374.78 69.91,373.91
             73.69,372.35 83.90,364.81 84.91,360.84
             86.23,355.56 82.92,345.97 88.90,341.74
             92.36,339.28 96.37,340.25 99.23,343.07
             100.92,344.73 102.21,347.70 104.99,347.48
             107.64,347.27 115.08,340.67 117.54,338.75
             117.54,338.75 131.91,327.52 131.91,327.52
             133.96,325.81 136.68,323.80 137.66,321.26
             138.47,319.16 138.18,313.06 138.20,310.51
             138.20,310.51 139.10,297.03 139.10,297.03
             139.11,285.74 140.11,271.10 142.81,260.18
             144.30,254.16 146.81,245.99 154.37,245.99
             162.13,245.99 164.43,254.06 165.94,260.18
             168.52,270.60 169.63,285.34 169.65,296.13
             169.65,296.13 170.55,309.62 170.55,309.62
             170.57,312.32 170.26,319.09 171.09,321.29
             172.18,324.20 175.36,326.42 177.73,328.30
             177.73,328.30 191.21,338.90 191.21,338.90
             193.55,340.72 201.30,347.28 203.76,347.48
             206.54,347.70 207.82,344.73 209.52,343.07
             212.38,340.25 216.39,339.28 219.85,341.74
             224.60,345.11 223.47,352.14 223.56,357.25
             223.60,359.10 223.57,360.88 224.48,362.56
             225.84,365.08 235.19,372.04 237.94,373.67
             239.76,374.58 241.92,375.43 243.69,373.67
             245.82,371.80 244.40,368.05 248.03,364.82
             252.79,360.59 261.15,362.48 261.30,373.43
             261.30,373.43 261.30,384.21 261.30,384.21
             261.36,393.61 265.18,392.62 272.98,399.01
             278.43,403.48 285.63,411.14 288.82,417.47
             290.11,420.06 293.65,429.74 291.79,432.03
             290.22,434.28 286.54,432.57 284.66,432.03
             284.66,432.03 265.79,424.30 265.79,424.30
             265.79,424.30 213.68,403.45 213.68,403.45
             213.68,403.45 187.62,393.50 187.62,393.50
             173.00,391.03 173.13,404.92 171.82,414.77
             171.82,414.77 169.49,442.63 169.49,442.63
             169.49,442.63 166.02,480.39 166.02,480.39
             165.79,485.34 163.58,500.95 164.54,504.64
             164.98,506.39 165.67,507.40 167.09,508.52
             167.09,508.52 187.62,516.88 187.62,516.88
             187.62,516.88 203.79,523.52 203.79,523.52
             206.22,524.52 210.39,525.88 212.15,527.71
             214.41,530.04 219.01,542.46 219.96,546.00
             219.96,546.00 183.13,537.58 183.13,537.58
             183.13,537.58 166.07,533.80 166.07,533.80
             160.78,533.94 160.94,539.56 155.27,540.31
             148.13,541.26 148.58,533.38 141.80,533.87
             141.80,533.87 125.62,537.58 125.62,537.58
             125.62,537.58 88.78,546.00 88.78,546.00 Z" />
    <path id="t"
          fill="#177072" stroke="#1d1d1b" stroke-width="0"
          d="M 143.33,506.72
             C 143.33,501.66 142.05,487.00 141.81,481.97
             141.81,481.97 138.27,442.53 138.27,442.53
             138.27,442.53 135.89,415.02 135.89,415.02
             134.56,404.97 134.69,390.79 119.77,393.31
             119.77,393.31 93.18,403.47 93.18,403.47
             93.18,403.47 40.01,424.74 40.01,424.74
             40.01,424.74 20.75,432.62 20.75,432.62
             18.83,433.18 15.08,434.92 13.46,432.62
             12.41,431.40 13.10,428.53 13.46,426.94
             14.55,421.61 16.19,417.66 19.32,413.18
             22.94,408.01 28.64,402.11 33.59,398.21
             36.69,395.76 65.64,374.72 67.51,373.32
             70.93,371.43 113.60,339.40 116.11,337.45
             116.11,337.45 130.78,325.98 130.78,325.98
             132.87,324.25 135.65,322.19 136.64,319.60
             141.93,309.21 166.46,311.40 170.75,319.63
             171.87,322.59 175.11,324.87 177.53,326.78
             177.53,326.78 200.46,344.11 204.09,346.36
             206.75,348.79 266.77,392.41 274.72,398.94
             280.29,403.50 287.64,411.32 290.88,417.77
             292.21,420.41 295.82,430.30 293.92,432.62
             292.32,434.92 288.56,433.18 286.65,432.62
             286.65,432.62 267.39,424.74 267.39,424.74
             267.39,424.74 214.21,403.47 214.21,403.47
             214.21,403.47 187.63,393.31 187.63,393.31
             172.71,390.79 172.84,404.97 171.50,415.02
             171.50,415.02 169.13,443.45 169.13,443.45
             169.13,443.45 165.58,481.97 165.58,481.97
             165.34,487.03 164.56,502.35 164.07,506.72
             160.88,541.15 161.98,543.04 154.10,543.14
             144.72,543.14 145.82,541.95 143.33,506.72 Z" />
  </g>
</svg>
